<svg width="208" height="34" viewBox="0 0 208 34" fill="none" xmlns="http://www.w3.org/2000/svg">
<g clip-path="url(#clip0_386_167)">
<path d="M61.3714 25.8314C58.6033 25.8314 56.3594 23.6018 56.3594 20.8514V0.374368C56.3594 0.16761 56.5281 0 56.7361 0H60.8342C61.1309 0 61.3714 0.238987 61.3714 0.533792V25.8314Z" fill="white"/>
<path fill-rule="evenodd" clip-rule="evenodd" d="M83.1831 25.2975C83.1831 25.5923 82.9426 25.8313 82.6459 25.8313H78.7444C78.4477 25.8313 78.2072 25.5923 78.2072 25.2975V23.9325C77.7384 24.649 76.9812 25.1864 75.9716 25.5805C74.998 25.9746 74.0966 26.1537 73.3033 26.1537C71.0317 26.1537 69.0485 25.3655 67.3178 23.7533C65.587 22.1411 64.7216 20.0273 64.7216 17.4477C64.7216 14.8682 65.587 12.7902 67.3178 11.178C69.0485 9.56573 71.0317 8.7417 73.3033 8.7417C74.8899 8.7417 77.0533 9.35076 78.2072 10.963V9.63377C78.2072 9.33896 78.4477 9.09998 78.7444 9.09998H82.6459C82.9426 9.09998 83.1831 9.33896 83.1831 9.63377V25.2975ZM71.1759 20.3139C72.0413 21.0663 73.0149 21.4246 74.1327 21.4246C76.2961 21.4246 78.2072 19.8482 78.2072 17.4477C78.2072 15.0473 76.2961 13.4709 74.1327 13.4709C73.0149 13.4709 72.0413 13.865 71.1759 14.6174C70.3466 15.3698 69.9139 16.3013 69.9139 17.4477C69.9139 18.5942 70.3466 19.5615 71.1759 20.3139Z" fill="white"/>
<path d="M94.1521 19.4901C95.342 19.8125 95.8107 20.2066 95.8107 20.9232C95.8107 21.7472 94.9093 22.2846 93.7555 22.3204C92.6482 22.3204 91.6899 21.6787 91.3754 20.887C91.2693 20.6197 91.0383 20.3858 90.7491 20.3858H87.1283C86.8273 20.3858 86.5825 20.6321 86.6131 20.9296C86.7684 22.4388 87.4492 23.6838 88.7074 24.6134C90.1136 25.6524 91.7723 26.1539 93.6112 26.1539C95.5583 26.1539 97.2531 25.6882 98.6954 24.7925C100.174 23.8968 100.895 22.6071 100.895 20.9232C100.895 19.92 100.751 18.9885 99.2723 17.5912C98.5511 16.9105 97.5776 16.3731 96.3156 16.0507L93.467 15.2983C92.5295 15.0475 92.0247 14.6534 91.9886 14.0444C91.9526 13.292 92.6377 12.7904 93.7555 12.7904C94.775 12.7904 95.3709 13.1177 95.5813 13.7535C95.6716 14.0263 95.8952 14.2593 96.1842 14.2593H99.8426C100.143 14.2593 100.388 14.0136 100.361 13.7161C100.214 12.0917 99.5383 10.8755 98.3348 10.0675C97.0006 9.17181 95.3781 8.70605 93.467 8.70605C91.7002 8.70605 90.1858 9.20764 88.8877 10.175C87.5896 11.1424 86.9406 12.2172 86.9045 13.4711C86.8685 14.5101 86.9406 15.0833 87.4814 16.2298C88.0584 17.3405 89.6088 18.3078 91.9526 18.9169L94.1521 19.4901Z" fill="white"/>
<path d="M112.178 20.9232C112.178 20.2066 111.709 19.8125 110.519 19.4901L108.32 18.9169C105.976 18.3078 104.426 17.3405 103.849 16.2298C103.308 15.0833 103.236 14.5101 103.272 13.4711C103.308 12.2172 103.957 11.1424 105.255 10.175C106.553 9.20764 108.067 8.70605 109.834 8.70605C111.745 8.70605 113.368 9.17181 114.702 10.0675C115.906 10.8755 116.581 12.0917 116.728 13.7161C116.755 14.0136 116.511 14.2593 116.21 14.2593H112.551C112.263 14.2593 112.039 14.0263 111.949 13.7535C111.738 13.1177 111.142 12.7904 110.123 12.7904C109.005 12.7904 108.32 13.292 108.356 14.0444C108.392 14.6534 108.897 15.0475 109.834 15.2983L112.683 16.0507C113.945 16.3731 114.918 16.9105 115.64 17.5912C117.118 18.9885 117.262 19.92 117.262 20.9232C117.262 22.6071 116.541 23.8968 115.063 24.7925C113.62 25.6882 111.926 26.1539 109.978 26.1539C108.14 26.1539 106.481 25.6524 105.075 24.6134C103.817 23.6838 103.136 22.4388 102.98 20.9296C102.95 20.6321 103.195 20.3858 103.496 20.3858H107.116C107.406 20.3858 107.637 20.6197 107.743 20.887C108.057 21.6787 109.015 22.3204 110.123 22.3204C111.277 22.2846 112.178 21.7472 112.178 20.9232Z" fill="white"/>
<path d="M128.597 8.7417C126.109 8.7417 123.946 9.56573 122.143 11.178C120.34 12.7902 119.438 14.8682 119.438 17.4119C119.438 19.9556 120.34 22.0694 122.143 23.7175C123.946 25.3656 126.109 26.1896 128.597 26.1896C131.431 26.1896 133.981 25.0292 135.596 23.0312C135.782 22.8024 135.722 22.47 135.481 22.3004L132.3 20.0627C132.05 19.8871 131.707 19.9571 131.508 20.1876C130.801 21.0048 129.831 21.4246 128.597 21.4246C127.479 21.4246 126.506 21.0663 125.676 20.3139C124.847 19.5615 124.414 18.5942 124.414 17.4119C124.414 16.2654 124.847 15.3339 125.676 14.6174C126.506 13.865 127.479 13.5067 128.597 13.5067C129.83 13.5067 130.799 13.9257 131.505 14.7412C131.706 14.9725 132.051 15.0418 132.301 14.864L135.481 12.5991C135.722 12.4275 135.779 12.0933 135.591 11.8656C133.945 9.87104 131.397 8.7417 128.597 8.7417Z" fill="white"/>
<path fill-rule="evenodd" clip-rule="evenodd" d="M156.345 25.2619C156.345 25.5567 156.104 25.7957 155.807 25.7957H151.906C151.609 25.7957 151.369 25.5567 151.369 25.2619V23.8968C150.9 24.6134 150.143 25.1508 149.133 25.5449C148.16 25.939 147.258 26.1181 146.465 26.1181C144.193 26.1181 142.21 25.3299 140.479 23.7177C138.749 22.1055 137.883 19.9917 137.883 17.4121C137.883 14.8326 138.749 12.7546 140.479 11.1424C142.21 9.53008 144.193 8.70605 146.465 8.70605C148.051 8.70605 150.215 9.31512 151.369 10.9274V9.59812C151.369 9.30331 151.609 9.06433 151.906 9.06433H155.807C156.104 9.06433 156.345 9.30331 156.345 9.59812V25.2619ZM144.337 20.2783C145.203 21.0307 146.176 21.3889 147.294 21.3889C149.458 21.3889 151.369 19.8125 151.369 17.4121C151.369 15.0117 149.458 13.4353 147.294 13.4353C146.176 13.4353 145.203 13.8294 144.337 14.5818C143.508 15.3341 143.075 16.2656 143.075 17.4121C143.075 18.5586 143.508 19.5259 144.337 20.2783Z" fill="white"/>
<path d="M178.442 13.5784C180.029 13.5784 181.219 14.7965 181.219 16.9103V25.2975C181.219 25.5923 181.459 25.8313 181.756 25.8313H185.657C185.954 25.8313 186.195 25.5923 186.195 25.2975V16.3371C186.195 11.3571 183.779 8.7417 179.704 8.7417C177.577 8.7417 175.882 9.74486 174.656 11.7154C173.719 9.74486 171.916 8.77753 169.248 8.77753C167.373 8.77753 165.606 9.81652 164.848 11.5363V9.63377C164.848 9.33896 164.608 9.09998 164.311 9.09998H160.374C160.077 9.09998 159.836 9.33896 159.836 9.63377V25.2975C159.836 25.5923 160.077 25.8313 160.374 25.8313H164.311C164.608 25.8313 164.848 25.5923 164.848 25.2975V16.982C164.848 14.5816 166.074 13.5784 167.769 13.5784C169.32 13.5784 170.51 14.7965 170.546 16.8029V25.2975C170.546 25.5923 170.786 25.8313 171.083 25.8313H175.02C175.317 25.8313 175.558 25.5923 175.558 25.2975V16.982C175.558 14.689 176.711 13.5784 178.442 13.5784Z" fill="white"/>
<path fill-rule="evenodd" clip-rule="evenodd" d="M194.426 34.0001C191.713 34.0001 189.514 31.8149 189.514 29.1193V9.38402C189.514 9.20746 189.658 9.06433 189.836 9.06433H193.953C194.249 9.06433 194.49 9.30331 194.49 9.59812V11.1424C195.319 9.60173 197.266 8.70605 199.43 8.70605C201.665 8.70605 203.577 9.53008 205.163 11.1424C206.786 12.7546 207.579 14.8326 207.579 17.3763C207.579 19.9917 206.786 22.1055 205.163 23.7177C203.577 25.3299 201.665 26.1539 199.43 26.1539C197.266 26.1539 195.319 25.2224 194.49 23.7535V33.9367C194.49 33.9717 194.461 34.0001 194.426 34.0001ZM198.492 13.4353C196.329 13.4353 194.598 15.155 194.598 17.4838C194.598 19.92 196.329 21.4606 198.492 21.4606C200.656 21.4606 202.387 19.8125 202.387 17.4838C202.387 15.0833 200.656 13.4353 198.492 13.4353Z" fill="white"/>
<path d="M49.4973 18.3701C49.6817 18.1373 50.017 18.0745 50.2619 18.2436L53.3989 20.4096C53.6379 20.5746 53.7022 20.8998 53.5313 21.1339C51.4208 24.0239 47.9588 25.8059 43.9712 25.8059C40.6401 25.8059 37.8529 24.6576 35.5755 22.3273C33.3321 19.9969 32.2104 17.1937 32.2104 13.8839C32.2104 10.5404 33.3321 7.73722 35.5755 5.40686C37.8529 3.07651 40.6401 1.92822 43.9712 1.92822C47.8513 1.92822 51.3008 3.67027 53.4126 6.42756C53.592 6.66174 53.529 6.99426 53.2852 7.16123L50.1257 9.32446C49.8807 9.49219 49.5464 9.42857 49.3638 9.19524C48.0034 7.4577 46.2059 6.58893 43.9712 6.58893C42.0337 6.58893 40.4361 7.29816 39.1445 8.71664C37.8529 10.1013 37.207 11.8238 37.207 13.8839C37.207 15.9103 37.8529 17.6328 39.1445 19.0513C40.4361 20.436 42.0337 21.1452 43.9712 21.1452C46.1985 21.1452 48.1652 20.052 49.4973 18.3701Z" fill="white"/>
<path d="M22.1912 6.00009L20.8998 8.23689C21.6599 8.67636 22.322 8.92789 23.2632 8.92789V11.5127C21.8505 11.5127 20.7464 11.1349 19.6057 10.4749L20.8971 8.23809C18.616 6.9186 15.9677 6.16341 13.1429 6.16341C10.3176 6.16341 7.66868 6.91892 5.38725 8.23894L4.09464 6.00009C6.75629 4.46005 9.84667 3.57861 13.1429 3.57861C16.4392 3.57861 19.5296 4.46005 22.1912 6.00009Z" fill="white"/>
<path d="M19.606 10.4776C17.7048 9.37765 15.4974 8.74805 13.1429 8.74805C10.7885 8.74805 8.58106 9.37765 6.67987 10.4776L7.97247 12.7165C9.49342 11.8365 11.2594 11.3328 13.1429 11.3328C15.0259 11.3328 16.7913 11.8361 18.3119 12.7156L17.0205 14.9525C18.9217 16.0525 20.9087 16.6821 23.2632 16.6821V14.0973C21.3802 14.0973 19.8352 13.5939 18.3146 12.7144L19.606 10.4776Z" fill="white"/>
<path d="M13.1429 13.918C14.5556 13.918 15.8801 14.2958 17.0208 14.9558L15.7293 17.1926C18.0104 18.5121 20.4384 19.2673 23.2632 19.2673V21.8521C19.9669 21.852 17.0969 20.9706 14.4353 19.4306L15.7267 17.1938C14.9665 16.7543 14.0841 16.5028 13.1429 16.5028C12.2012 16.5028 11.3182 16.7546 10.5577 17.1946L9.26511 14.9558C10.4058 14.2958 11.7303 13.918 13.1429 13.918Z" fill="white"/>
<path d="M8.52274 23.9983H8.52509C8.53096 24.0099 8.53686 24.0215 8.54281 24.0331L8.79339 24.4671C9.71324 25.8955 11.3176 26.8416 13.1429 26.8416H13.149L1.95422 7.45166C1.25999 7.99864 0.60679 8.59537 0 9.23645L8.52274 23.9983Z" fill="white"/>
</g>
<defs>
<clipPath id="clip0_386_167">
<rect width="208" height="34" fill="white"/>
</clipPath>
</defs>
</svg>
