<svg width="28" height="23" viewBox="0 0 28 23" fill="none" xmlns="http://www.w3.org/2000/svg">
<path d="M8.8058 22.7558C19.3725 22.7558 25.1507 14.0018 25.1507 6.4109C25.1507 6.1623 25.1456 5.9148 25.1345 5.6684C26.2561 4.8575 27.2311 3.8456 28 2.6936C26.9707 3.1511 25.863 3.4592 24.701 3.598C25.8871 2.8868 26.7977 1.7618 27.2272 0.42056C26.1173 1.0786 24.888 1.5568 23.5793 1.815C22.531 0.69832 21.0386 0 19.386 0C16.2136 0 13.6409 2.5727 13.6409 5.744C13.6409 6.1948 13.6913 6.6333 13.7899 7.0538C9.0153 6.8136 4.7816 4.5276 1.94855 1.0517C1.45518 1.9007 1.1707 2.8868 1.1707 3.9391C1.1707 5.9321 2.18487 7.6917 3.72712 8.721C2.78463 8.6918 1.89927 8.4331 1.12534 8.0025C1.12449 8.0266 1.12449 8.0501 1.12449 8.0758C1.12449 10.8579 3.10467 13.1808 5.7333 13.7073C5.2506 13.8389 4.7427 13.9094 4.2185 13.9094C3.84892 13.9094 3.48883 13.873 3.13883 13.8058C3.8702 16.0884 5.9909 17.7494 8.5054 17.7959C6.5392 19.337 4.0623 20.2548 1.37034 20.2548C0.90721 20.2548 0.44968 20.2285 0 20.1753C2.54243 21.8049 5.5614 22.7558 8.8061 22.7558" fill="white"/>
</svg>
