<svg width="32" height="23" viewBox="0 0 32 23" fill="none" xmlns="http://www.w3.org/2000/svg">
<path fill-rule="evenodd" clip-rule="evenodd" d="M30.2553 1.7293C30.7522 2.2302 31.1103 2.8535 31.2938 3.5372C32.3507 7.8252 32.1065 14.5975 31.3143 19.0511C31.1308 19.7348 30.7727 20.3581 30.2758 20.8589C29.7789 21.3597 29.1605 21.7206 28.4822 21.9056C25.9989 22.5882 16.0043 22.5882 16.0043 22.5882C16.0043 22.5882 6.0097 22.5882 3.52648 21.9056C2.84816 21.7206 2.22975 21.3597 1.73285 20.8589C1.23595 20.3581 0.87789 19.7348 0.69434 19.0511C-0.36874 14.7816 -0.0773207 8.0052 0.673819 3.5579C0.857369 2.8742 1.21542 2.2509 1.71233 1.75C2.20923 1.2492 2.82763 0.8883 3.50596 0.7033C5.98922 0.0206905 15.9838 0 15.9838 0C15.9838 0 25.9784 -4.17233e-07 28.4617 0.68261C29.14 0.86762 29.7584 1.2285 30.2553 1.7293ZM20.7648 11.2943L13.2354 16.0001V6.5884L20.7648 11.2943Z" fill="white"/>
</svg>
