<svg width="120" height="23" viewBox="0 0 120 23" fill="none" xmlns="http://www.w3.org/2000/svg">
<g clip-path="url(#clip0_386_240)">
<path d="M20.5159 17.4742C18.6434 17.4742 17.1254 15.9659 17.1254 14.1054V0.253249C17.1254 0.113383 17.2395 0 17.3803 0H20.1525C20.3532 0 20.5159 0.161668 20.5159 0.361095V17.4742Z" fill="black"/>
<path fill-rule="evenodd" clip-rule="evenodd" d="M35.2709 17.1131C35.2709 17.3125 35.1082 17.4742 34.9075 17.4742H32.2682C32.0675 17.4742 31.9048 17.3125 31.9048 17.1131V16.1897C31.5877 16.6744 31.0755 17.0379 30.3925 17.3045C29.7339 17.5711 29.1241 17.6923 28.5875 17.6923C27.0508 17.6923 25.7093 17.1591 24.5385 16.0685C23.3677 14.9779 22.7822 13.5479 22.7822 11.803C22.7822 10.058 23.3677 8.65225 24.5385 7.56162C25.7093 6.471 27.0508 5.91357 28.5875 5.91357C29.6608 5.91357 31.1243 6.32559 31.9048 7.41621V6.51703C31.9048 6.3176 32.0675 6.15593 32.2682 6.15593H34.9075C35.1082 6.15593 35.2709 6.3176 35.2709 6.51703V17.1131ZM27.1484 13.7418C27.7338 14.2508 28.3924 14.4932 29.1485 14.4932C30.6121 14.4932 31.9048 13.4268 31.9048 11.803C31.9048 10.1791 30.6121 9.11273 29.1485 9.11273C28.3924 9.11273 27.7338 9.37933 27.1484 9.88828C26.5874 10.3973 26.2947 11.0274 26.2947 11.803C26.2947 12.5785 26.5874 13.2329 27.1484 13.7418Z" fill="black"/>
<path d="M42.6911 13.1844C43.496 13.4025 43.8131 13.6691 43.8131 14.1538C43.8131 14.7113 43.2033 15.0748 42.4228 15.0991C41.6737 15.0991 41.0255 14.665 40.8128 14.1294C40.7409 13.9485 40.5847 13.7903 40.3891 13.7903H37.9397C37.7361 13.7903 37.5705 13.9569 37.5912 14.1582C37.6962 15.1791 38.1568 16.0213 39.0079 16.6502C39.9592 17.353 41.0812 17.6923 42.3252 17.6923C43.6424 17.6923 44.7888 17.3772 45.7645 16.7713C46.7646 16.1654 47.2524 15.2929 47.2524 14.1538C47.2524 13.4752 47.1548 12.8451 46.1548 11.8999C45.6669 11.4394 45.0083 11.0759 44.1546 10.8577L42.2277 10.3488C41.5935 10.1791 41.252 9.91258 41.2276 9.50057C41.2032 8.99161 41.6666 8.65231 42.4228 8.65231C43.1125 8.65231 43.5156 8.87374 43.6579 9.30382C43.719 9.48833 43.8703 9.64598 44.0658 9.64598H46.5406C46.744 9.64598 46.9094 9.47979 46.8911 9.27851C46.7916 8.17967 46.3347 7.35695 45.5206 6.81037C44.6181 6.20447 43.5204 5.8894 42.2277 5.8894C41.0324 5.8894 40.008 6.2287 39.1299 6.88307C38.2518 7.53745 37.8127 8.26453 37.7883 9.11279C37.7639 9.81564 37.8127 10.2034 38.1786 10.9789C38.5689 11.7302 39.6177 12.3846 41.2032 12.7966L42.6911 13.1844Z" fill="black"/>
<path d="M54.8851 14.1538C54.8851 13.6691 54.568 13.4025 53.7631 13.1844L52.2752 12.7966C50.6897 12.3846 49.6408 11.7302 49.2506 10.9789C48.8847 10.2034 48.8359 9.81564 48.8603 9.11279C48.8847 8.26453 49.3237 7.53745 50.2019 6.88307C51.08 6.2287 52.1044 5.8894 53.2996 5.8894C54.5924 5.8894 55.69 6.20447 56.5925 6.81037C57.4067 7.35695 57.8635 8.17967 57.9631 9.27851C57.9813 9.47979 57.8159 9.64598 57.6125 9.64598H55.1377C54.9423 9.64598 54.791 9.48833 54.7299 9.30382C54.5876 8.87374 54.1844 8.65231 53.4948 8.65231C52.7386 8.65231 52.2752 8.99161 52.2996 9.50057C52.324 9.91258 52.6654 10.1791 53.2996 10.3488L55.2266 10.8577C56.0803 11.0759 56.7389 11.4394 57.2267 11.8999C58.2268 12.8451 58.3244 13.4752 58.3244 14.1538C58.3244 15.2929 57.8365 16.1654 56.8365 16.7713C55.8608 17.3772 54.7144 17.6923 53.3972 17.6923C52.1532 17.6923 51.0312 17.353 50.0799 16.6502C49.2288 16.0213 48.7682 15.1791 48.6631 14.1582C48.6424 13.9569 48.8081 13.7903 49.0117 13.7903H51.461C51.6567 13.7903 51.8129 13.9485 51.8847 14.1294C52.0975 14.665 52.7457 15.0991 53.4948 15.0991C54.2753 15.0748 54.8851 14.7113 54.8851 14.1538Z" fill="black"/>
<path d="M65.992 5.91357C64.309 5.91357 62.8455 6.471 61.6259 7.56162C60.4063 8.65225 59.7965 10.058 59.7965 11.7787C59.7965 13.4995 60.4063 14.9294 61.6259 16.0443C62.8455 17.1591 64.309 17.7165 65.992 17.7165C67.909 17.7165 69.6339 16.9316 70.727 15.58C70.8522 15.4252 70.8119 15.2003 70.6489 15.0856L68.497 13.5719C68.3281 13.4531 68.0957 13.5005 67.961 13.6564C67.4833 14.2092 66.827 14.4932 65.992 14.4932C65.2359 14.4932 64.5773 14.2508 64.0163 13.7418C63.4553 13.2329 63.1626 12.5785 63.1626 11.7787C63.1626 11.0032 63.4553 10.373 64.0163 9.88828C64.5773 9.37933 65.2359 9.13697 65.992 9.13697C66.8261 9.13697 67.482 9.42037 67.9595 9.97204C68.095 10.1285 68.3287 10.1754 68.4975 10.0552L70.6487 8.52296C70.8117 8.40692 70.8501 8.1808 70.7231 8.02674C69.61 6.67754 67.8865 5.91357 65.992 5.91357Z" fill="black"/>
<path fill-rule="evenodd" clip-rule="evenodd" d="M84.7625 17.0889C84.7625 17.2883 84.5998 17.4499 84.3991 17.4499H81.7599C81.5592 17.4499 81.3964 17.2883 81.3964 17.0889V16.1654C81.0793 16.6502 80.5671 17.0137 79.8841 17.2803C79.2256 17.5469 78.6158 17.6681 78.0791 17.6681C76.5425 17.6681 75.2009 17.1349 74.0301 16.0443C72.8593 14.9536 72.2739 13.5237 72.2739 11.7787C72.2739 10.0337 72.8593 8.62807 74.0301 7.53745C75.2009 6.44683 76.5425 5.8894 78.0791 5.8894C79.1524 5.8894 80.6159 6.30141 81.3964 7.39203V6.49285C81.3964 6.29343 81.5592 6.13176 81.7599 6.13176H84.3991C84.5998 6.13176 84.7625 6.29343 84.7625 6.49285V17.0889ZM76.64 13.7176C77.2254 14.2266 77.884 14.4689 78.6401 14.4689C80.1037 14.4689 81.3964 13.4025 81.3964 11.7787C81.3964 10.1549 80.1037 9.08855 78.6401 9.08855C77.884 9.08855 77.2254 9.35515 76.64 9.86411C76.079 10.373 75.7863 11.0032 75.7863 11.7787C75.7863 12.5543 76.079 13.2086 76.64 13.7176Z" fill="black"/>
<path d="M99.7109 9.18544C100.784 9.18544 101.589 10.0095 101.589 11.4394V17.1131C101.589 17.3125 101.752 17.4742 101.952 17.4742H104.592C104.792 17.4742 104.955 17.3125 104.955 17.1131V11.0516C104.955 7.6828 103.321 5.91357 100.565 5.91357C99.1255 5.91357 97.9791 6.59218 97.1497 7.92516C96.5155 6.59218 95.296 5.93781 93.491 5.93781C92.2226 5.93781 91.0274 6.64066 90.5151 7.80399V6.51703C90.5151 6.3176 90.3524 6.15593 90.1517 6.15593H87.4881C87.2874 6.15593 87.1247 6.3176 87.1247 6.51703V17.1131C87.1247 17.3125 87.2874 17.4742 87.4881 17.4742H90.1517C90.3524 17.4742 90.5151 17.3125 90.5151 17.1131V11.4879C90.5151 9.86405 91.3445 9.18544 92.4909 9.18544C93.5397 9.18544 94.3447 10.0095 94.3691 11.3667V17.1131C94.3691 17.3125 94.5318 17.4742 94.7325 17.4742H97.3961C97.5968 17.4742 97.7595 17.3125 97.7595 17.1131V11.4879C97.7595 9.93676 98.5401 9.18544 99.7109 9.18544Z" fill="black"/>
<path fill-rule="evenodd" clip-rule="evenodd" d="M110.524 23C108.688 23 107.201 21.5218 107.201 19.6983V6.34802C107.201 6.22858 107.298 6.13176 107.418 6.13176H110.203C110.404 6.13176 110.567 6.29343 110.567 6.49285V7.53745C111.128 6.4953 112.445 5.8894 113.908 5.8894C115.421 5.8894 116.714 6.44683 117.787 7.53745C118.884 8.62807 119.421 10.0337 119.421 11.7545C119.421 13.5237 118.884 14.9536 117.787 16.0443C116.714 17.1349 115.421 17.6923 113.908 17.6923C112.445 17.6923 111.128 17.0622 110.567 16.0685V22.9571C110.567 22.9808 110.547 23 110.524 23ZM113.274 9.08855C111.811 9.08855 110.64 10.2518 110.64 11.8272C110.64 13.4752 111.811 14.5174 113.274 14.5174C114.738 14.5174 115.909 13.4025 115.909 11.8272C115.909 10.2034 114.738 9.08855 113.274 9.08855Z" fill="black"/>
<path d="M12.4834 12.4268C12.6082 12.2692 12.835 12.2268 13.0007 12.3411L15.1228 13.8064C15.2845 13.918 15.328 14.138 15.2123 14.2964C13.7846 16.2514 11.4427 17.4568 8.74517 17.4568C6.4918 17.4568 4.60633 16.6801 3.06576 15.1036C1.54819 13.5272 0.789398 11.631 0.789398 9.39202C0.789398 7.13021 1.54819 5.23394 3.06576 3.65752C4.60633 2.08111 6.4918 1.30432 8.74517 1.30432C11.37 1.30432 13.7034 2.48277 15.132 4.34799C15.2534 4.50641 15.2108 4.73135 15.0458 4.8443L12.9085 6.30766C12.7428 6.42113 12.5167 6.37809 12.3931 6.22025C11.4729 5.04485 10.2569 4.45716 8.74517 4.45716C7.43454 4.45716 6.35384 4.93693 5.48009 5.89649C4.60633 6.8332 4.16945 7.99838 4.16945 9.39202C4.16945 10.7628 4.60633 11.928 5.48009 12.8875C6.35384 13.8242 7.43454 14.304 8.74517 14.304C10.2519 14.304 11.5823 13.5645 12.4834 12.4268Z" fill="black"/>
</g>
<defs>
<clipPath id="clip0_386_240">
<rect width="120" height="23" fill="white"/>
</clipPath>
</defs>
</svg>
