<svg width="25" height="17" viewBox="0 0 25 17" fill="none" xmlns="http://www.w3.org/2000/svg">
<path fill-rule="evenodd" clip-rule="evenodd" d="M22.8351 1.77864C23.1953 2.1418 23.455 2.59369 23.588 3.08937C24.3542 6.19817 24.1772 11.1081 23.6029 14.3369C23.4698 14.8326 23.2102 15.2845 22.8499 15.6476C22.4897 16.0107 22.0414 16.2723 21.5496 16.4065C19.7492 16.9013 12.5031 16.9013 12.5031 16.9013C12.5031 16.9013 5.25703 16.9013 3.45669 16.4065C2.96491 16.2723 2.51656 16.0107 2.15631 15.6476C1.79606 15.2845 1.53646 14.8326 1.40339 14.3369C0.632657 11.2416 0.843936 6.32867 1.38851 3.10438C1.52159 2.6087 1.78117 2.1568 2.14143 1.79365C2.50168 1.43057 2.95003 1.16892 3.44181 1.0348C5.24218 0.539903 12.4882 0.524902 12.4882 0.524902C12.4882 0.524902 19.7343 0.524902 21.5347 1.01979C22.0265 1.15393 22.4748 1.41556 22.8351 1.77864ZM15.9545 8.71327L10.4957 12.125V5.30149L15.9545 8.71327Z" fill="white"/>
</svg>
